<svg xmlns="http://www.w3.org/2000/svg" xmlns:xlink="http://www.w3.org/1999/xlink" width="820" zoomAndPan="magnify" viewBox="0 0 615 233.999995" height="312" preserveAspectRatio="xMidYMid meet" version="1.0"><defs><clipPath id="9fb3291b0e"><path d="M 66 76.1875 L 89.410156 76.1875 L 89.410156 99.757812 L 66 99.757812 Z M 66 76.1875 " clip-rule="nonzero"/></clipPath><clipPath id="17d7c56b00"><path d="M 76.585938 76.566406 C 71.210938 77.101562 66.863281 81.449219 66.328125 86.824219 C 65.609375 94.089844 71.667969 100.148438 78.933594 99.429688 C 84.308594 98.894531 88.65625 94.546875 89.191406 89.171875 C 89.910156 81.902344 83.855469 75.847656 76.585938 76.566406 " clip-rule="nonzero"/></clipPath><clipPath id="0195b6338d"><path d="M 0 0.1875 L 23.410156 0.1875 L 23.410156 23.757812 L 0 23.757812 Z M 0 0.1875 " clip-rule="nonzero"/></clipPath><clipPath id="7823cacb95"><path d="M 10.585938 0.566406 C 5.210938 1.101562 0.863281 5.449219 0.328125 10.824219 C -0.390625 18.089844 5.667969 24.148438 12.933594 23.429688 C 18.308594 22.894531 22.65625 18.546875 23.191406 13.171875 C 23.910156 5.902344 17.855469 -0.152344 10.585938 0.566406 " clip-rule="nonzero"/></clipPath><clipPath id="ba8516e37b"><rect x="0" width="24" y="0" height="24"/></clipPath><clipPath id="ff83844966"><path d="M 3.550781 3.796875 L 153.386719 3.796875 L 153.386719 162.609375 L 3.550781 162.609375 Z M 3.550781 3.796875 " clip-rule="nonzero"/></clipPath><clipPath id="308159bf3c"><path d="M 136.804688 45.945312 C 133.15625 45.945312 130.195312 42.984375 130.195312 39.335938 C 130.195312 35.683594 133.15625 32.726562 136.804688 32.726562 C 140.457031 32.726562 143.414062 35.683594 143.414062 39.335938 C 143.414062 42.984375 140.457031 45.945312 136.804688 45.945312 M 130.996094 143.925781 C 126.011719 143.925781 121.96875 139.882812 121.96875 134.898438 C 121.96875 129.917969 126.007812 125.875 130.996094 125.875 C 135.984375 125.875 140.023438 129.910156 140.023438 134.898438 C 140.023438 139.890625 135.984375 143.925781 130.996094 143.925781 M 110.25 135.441406 L 110.308594 136.9375 C 102.988281 141.816406 94.507812 145.097656 85.367188 146.277344 L 85.367188 127.492188 C 100.792969 124.539062 113.089844 112.78125 116.816406 97.644531 L 135.742188 97.644531 C 134.746094 103.652344 132.847656 109.355469 130.179688 114.601562 C 119.09375 115.085938 110.253906 124.230469 110.253906 135.441406 M 76.445312 113.28125 C 63.578125 112.628906 53.128906 102.171875 52.476562 89.3125 C 51.71875 74.285156 64.058594 61.945312 79.085938 62.703125 C 91.953125 63.355469 102.402344 73.8125 103.054688 86.671875 C 103.8125 101.699219 91.476562 114.039062 76.445312 113.28125 M 69.792969 146.226562 C 53.699219 144.046875 39.671875 135.34375 30.457031 122.871094 L 57.722656 122.871094 C 61.417969 124.996094 65.480469 126.558594 69.789062 127.425781 Z M 23.113281 109.652344 C 20.941406 104.179688 19.574219 98.308594 19.144531 92.171875 L 37.746094 92.171875 C 38.40625 98.5625 40.570312 104.507812 43.867188 109.652344 Z M 40.476562 49.609375 C 42.84375 46.730469 44.394531 43.164062 44.800781 39.257812 L 44.792969 39.308594 C 52.164062 34.328125 60.726562 30.960938 69.96875 29.734375 L 69.96875 48.523438 C 62.246094 50.039062 55.324219 53.765625 49.875 59.015625 Z M 85.546875 29.734375 C 100.269531 31.6875 113.28125 39.085938 122.46875 49.847656 L 106.007812 59.351562 C 100.5 53.925781 93.441406 50.070312 85.550781 48.519531 Z M 129.886719 60.832031 C 133.609375 67.960938 135.910156 75.949219 136.421875 84.421875 L 117.824219 84.421875 C 117.375 79.324219 115.972656 74.496094 113.800781 70.117188 Z M 24.605469 44.347656 C 20.339844 44.347656 16.886719 40.894531 16.886719 36.628906 C 16.886719 32.367188 20.339844 28.914062 24.605469 28.914062 C 28.867188 28.914062 32.320312 32.367188 32.320312 36.628906 C 32.320312 40.894531 28.867188 44.347656 24.605469 44.347656 M 144.183594 54.898438 C 150.082031 51.882812 153.96875 45.5 153.300781 38.277344 C 152.535156 30.078125 145.765625 23.558594 137.542969 23.074219 C 131.78125 22.738281 126.609375 25.304688 123.328125 29.429688 C 112.679688 21.128906 99.703125 15.675781 85.546875 14.195312 L 85.546875 8.722656 C 85.546875 6.007812 83.34375 3.800781 80.625 3.800781 L 74.890625 3.800781 C 72.171875 3.800781 69.96875 6.007812 69.96875 8.722656 L 69.96875 14.199219 C 59.070312 15.34375 48.867188 18.835938 39.890625 24.171875 C 35.976562 19.832031 30.136719 17.261719 23.722656 17.800781 C 14.226562 18.597656 6.601562 26.34375 5.949219 35.847656 C 5.160156 47.25 14.175781 56.734375 25.402344 56.734375 L 28.101562 56.546875 C 28.28125 56.523438 28.457031 56.496094 28.632812 56.464844 L 41.914062 69.746094 C 40.441406 72.628906 39.3125 75.710938 38.570312 78.953125 L 19.621094 78.953125 C 20.222656 75.03125 21.210938 71.242188 22.550781 67.617188 C 23.378906 65.378906 22.488281 62.871094 20.417969 61.679688 L 15.511719 58.84375 C 12.90625 57.34375 9.578125 58.523438 8.496094 61.332031 C 5.109375 70.121094 3.351562 79.710938 3.582031 89.746094 C 4.496094 129.488281 37.066406 161.695312 76.820312 162.1875 C 91.632812 162.375 105.460938 158.210938 117.117188 150.90625 C 121.039062 154.460938 126.320312 156.535156 132.085938 156.273438 C 142.648438 155.789062 151.292969 147.273438 151.921875 136.71875 C 152.328125 129.945312 149.5 123.828125 144.835938 119.742188 C 149.402344 110.113281 151.957031 99.351562 151.957031 87.988281 C 151.957031 76.09375 149.15625 64.855469 144.179688 54.890625 " clip-rule="nonzero"/></clipPath><clipPath id="e0855f7db2"><path d="M 0.550781 0.796875 L 150.386719 0.796875 L 150.386719 159.558594 L 0.550781 159.558594 Z M 0.550781 0.796875 " clip-rule="nonzero"/></clipPath><clipPath id="986b367c11"><path d="M 133.804688 42.945312 C 130.15625 42.945312 127.195312 39.984375 127.195312 36.335938 C 127.195312 32.683594 130.15625 29.726562 133.804688 29.726562 C 137.457031 29.726562 140.414062 32.683594 140.414062 36.335938 C 140.414062 39.984375 137.457031 42.945312 133.804688 42.945312 M 127.996094 140.925781 C 123.011719 140.925781 118.96875 136.882812 118.96875 131.898438 C 118.96875 126.917969 123.007812 122.875 127.996094 122.875 C 132.984375 122.875 137.023438 126.910156 137.023438 131.898438 C 137.023438 136.890625 132.984375 140.925781 127.996094 140.925781 M 107.25 132.441406 L 107.308594 133.9375 C 99.988281 138.816406 91.507812 142.097656 82.367188 143.277344 L 82.367188 124.492188 C 97.792969 121.539062 110.089844 109.78125 113.816406 94.644531 L 132.742188 94.644531 C 131.746094 100.652344 129.847656 106.355469 127.179688 111.601562 C 116.09375 112.085938 107.253906 121.230469 107.253906 132.441406 M 73.445312 110.28125 C 60.578125 109.628906 50.128906 99.171875 49.476562 86.3125 C 48.71875 71.285156 61.058594 58.945312 76.085938 59.703125 C 88.953125 60.355469 99.402344 70.8125 100.054688 83.671875 C 100.8125 98.699219 88.476562 111.039062 73.445312 110.28125 M 66.792969 143.226562 C 50.699219 141.046875 36.671875 132.34375 27.457031 119.871094 L 54.722656 119.871094 C 58.417969 121.996094 62.480469 123.558594 66.789062 124.425781 Z M 20.113281 106.652344 C 17.941406 101.179688 16.574219 95.308594 16.144531 89.171875 L 34.746094 89.171875 C 35.40625 95.5625 37.570312 101.507812 40.867188 106.652344 Z M 37.476562 46.609375 C 39.84375 43.730469 41.394531 40.164062 41.800781 36.257812 L 41.792969 36.308594 C 49.164062 31.328125 57.726562 27.960938 66.96875 26.734375 L 66.96875 45.523438 C 59.246094 47.039062 52.324219 50.765625 46.875 56.015625 Z M 82.546875 26.734375 C 97.269531 28.6875 110.28125 36.085938 119.46875 46.847656 L 103.007812 56.351562 C 97.5 50.925781 90.441406 47.070312 82.550781 45.519531 Z M 126.886719 57.832031 C 130.609375 64.960938 132.910156 72.949219 133.421875 81.421875 L 114.824219 81.421875 C 114.375 76.324219 112.972656 71.496094 110.800781 67.117188 Z M 21.605469 41.347656 C 17.339844 41.347656 13.886719 37.894531 13.886719 33.628906 C 13.886719 29.367188 17.339844 25.914062 21.605469 25.914062 C 25.867188 25.914062 29.320312 29.367188 29.320312 33.628906 C 29.320312 37.894531 25.867188 41.347656 21.605469 41.347656 M 141.183594 51.898438 C 147.082031 48.882812 150.96875 42.5 150.300781 35.277344 C 149.535156 27.078125 142.765625 20.558594 134.542969 20.074219 C 128.78125 19.738281 123.609375 22.304688 120.328125 26.429688 C 109.679688 18.128906 96.703125 12.675781 82.546875 11.195312 L 82.546875 5.722656 C 82.546875 3.007812 80.34375 0.800781 77.625 0.800781 L 71.890625 0.800781 C 69.171875 0.800781 66.96875 3.007812 66.96875 5.722656 L 66.96875 11.199219 C 56.070312 12.34375 45.867188 15.835938 36.890625 21.171875 C 32.976562 16.832031 27.136719 14.261719 20.722656 14.800781 C 11.226562 15.597656 3.601562 23.34375 2.949219 32.847656 C 2.160156 44.25 11.175781 53.734375 22.402344 53.734375 L 25.101562 53.546875 C 25.28125 53.523438 25.457031 53.496094 25.632812 53.464844 L 38.914062 66.746094 C 37.441406 69.628906 36.3125 72.710938 35.570312 75.953125 L 16.621094 75.953125 C 17.222656 72.03125 18.210938 68.242188 19.550781 64.617188 C 20.378906 62.378906 19.488281 59.871094 17.417969 58.679688 L 12.511719 55.84375 C 9.90625 54.34375 6.578125 55.523438 5.496094 58.332031 C 2.109375 67.121094 0.351562 76.710938 0.582031 86.746094 C 1.496094 126.488281 34.066406 158.695312 73.820312 159.1875 C 88.632812 159.375 102.460938 155.210938 114.117188 147.90625 C 118.039062 151.460938 123.320312 153.535156 129.085938 153.273438 C 139.648438 152.789062 148.292969 144.273438 148.921875 133.71875 C 149.328125 126.945312 146.5 120.828125 141.835938 116.742188 C 146.402344 107.113281 148.957031 96.351562 148.957031 84.988281 C 148.957031 73.09375 146.15625 61.855469 141.179688 51.890625 " clip-rule="nonzero"/></clipPath><clipPath id="5c3a256913"><rect x="0" width="151" y="0" height="160"/></clipPath><clipPath id="eb1e5ffc22"><path d="M 183.496094 4.359375 L 275.5 4.359375 L 275.5 165.105469 L 183.496094 165.105469 Z M 183.496094 4.359375 " clip-rule="nonzero"/></clipPath><clipPath id="2c5b78b1c2"><path d="M 194.953125 154.855469 C 187.3125 148.089844 183.496094 138.382812 183.496094 125.738281 L 183.496094 123.285156 C 183.496094 119.710938 186.394531 116.816406 189.960938 116.816406 L 206.078125 116.816406 C 209.652344 116.816406 212.546875 119.71875 212.546875 123.285156 L 212.546875 127.527344 C 212.546875 137.644531 217.855469 142.699219 228.472656 142.699219 C 233.6875 142.699219 237.640625 141.46875 240.34375 139.011719 C 243.046875 136.558594 244.394531 132.582031 244.394531 127.074219 C 244.394531 120.53125 242.535156 114.765625 238.808594 109.777344 C 235.078125 104.789062 228.199219 98.820312 218.144531 91.824219 C 205.46875 82.902344 196.628906 74.835938 191.597656 67.613281 C 186.5625 60.390625 184.050781 52.261719 184.050781 43.183594 C 184.050781 30.839844 187.964844 21.28125 195.785156 14.515625 C 203.609375 7.746094 214.972656 4.359375 229.878906 4.359375 C 244.59375 4.359375 255.722656 7.746094 263.265625 14.515625 C 270.8125 21.28125 274.582031 30.988281 274.582031 43.632812 C 274.582031 47.207031 271.691406 50.101562 268.117188 50.101562 L 252 50.101562 C 248.425781 50.101562 245.53125 47.199219 245.53125 43.632812 L 245.53125 42.070312 C 245.53125 36.714844 244.226562 32.8125 241.621094 30.359375 C 239.011719 27.902344 235.195312 26.671875 230.164062 26.671875 C 219.914062 26.671875 214.796875 31.660156 214.796875 41.625 C 214.796875 47.28125 216.699219 52.554688 220.523438 57.46875 C 224.347656 62.382812 231.277344 68.324219 241.335938 75.3125 C 254.191406 84.234375 263.03125 92.34375 267.882812 99.632812 C 272.730469 106.921875 275.148438 115.476562 275.148438 125.292969 C 275.148438 138.089844 271.183594 147.90625 263.273438 154.746094 C 255.363281 161.589844 243.855469 165.011719 228.765625 165.011719 C 213.859375 165.011719 202.589844 161.625 194.957031 154.855469 " clip-rule="nonzero"/></clipPath><clipPath id="ea1a4386d8"><path d="M 0.496094 0.359375 L 92.238281 0.359375 L 92.238281 161.105469 L 0.496094 161.105469 Z M 0.496094 0.359375 " clip-rule="nonzero"/></clipPath><clipPath id="e0ed9e2ec6"><path d="M 11.953125 150.855469 C 4.3125 144.089844 0.496094 134.382812 0.496094 121.738281 L 0.496094 119.285156 C 0.496094 115.710938 3.394531 112.816406 6.960938 112.816406 L 23.078125 112.816406 C 26.652344 112.816406 29.546875 115.71875 29.546875 119.285156 L 29.546875 123.527344 C 29.546875 133.644531 34.855469 138.699219 45.472656 138.699219 C 50.6875 138.699219 54.640625 137.46875 57.34375 135.011719 C 60.046875 132.558594 61.394531 128.582031 61.394531 123.074219 C 61.394531 116.53125 59.535156 110.765625 55.808594 105.777344 C 52.078125 100.789062 45.199219 94.820312 35.144531 87.824219 C 22.46875 78.902344 13.628906 70.835938 8.597656 63.613281 C 3.5625 56.390625 1.050781 48.261719 1.050781 39.183594 C 1.050781 26.839844 4.964844 17.28125 12.785156 10.515625 C 20.609375 3.746094 31.972656 0.359375 46.878906 0.359375 C 61.59375 0.359375 72.722656 3.746094 80.265625 10.515625 C 87.8125 17.28125 91.582031 26.988281 91.582031 39.632812 C 91.582031 43.207031 88.691406 46.101562 85.117188 46.101562 L 69 46.101562 C 65.425781 46.101562 62.53125 43.199219 62.53125 39.632812 L 62.53125 38.070312 C 62.53125 32.714844 61.226562 28.8125 58.621094 26.359375 C 56.011719 23.902344 52.195312 22.671875 47.164062 22.671875 C 36.914062 22.671875 31.796875 27.660156 31.796875 37.625 C 31.796875 43.28125 33.699219 48.554688 37.523438 53.46875 C 41.347656 58.382812 48.277344 64.324219 58.335938 71.3125 C 71.191406 80.234375 80.03125 88.34375 84.882812 95.632812 C 89.730469 102.921875 92.148438 111.476562 92.148438 121.292969 C 92.148438 134.089844 88.183594 143.90625 80.273438 150.746094 C 72.363281 157.589844 60.855469 161.011719 45.765625 161.011719 C 30.859375 161.011719 19.589844 157.625 11.957031 150.855469 " clip-rule="nonzero"/></clipPath><clipPath id="1be39a8733"><rect x="0" width="93" y="0" height="162"/></clipPath><clipPath id="dd36ad8bf3"><path d="M 292.746094 6.59375 L 323.601562 6.59375 L 323.601562 162.792969 L 292.746094 162.792969 Z M 292.746094 6.59375 " clip-rule="nonzero"/></clipPath><clipPath id="1b037f0efc"><path d="M 299.214844 6.59375 L 317.007812 6.59375 C 320.582031 6.59375 323.480469 9.492188 323.480469 13.058594 L 323.480469 156.3125 C 323.480469 159.886719 320.589844 162.78125 317.011719 162.78125 L 299.214844 162.78125 C 295.636719 162.78125 292.746094 159.878906 292.746094 156.3125 L 292.746094 13.058594 C 292.746094 9.492188 295.636719 6.59375 299.214844 6.59375 " clip-rule="nonzero"/></clipPath><clipPath id="3859a41dc2"><path d="M 0.746094 0.59375 L 31.601562 0.59375 L 31.601562 156.792969 L 0.746094 156.792969 Z M 0.746094 0.59375 " clip-rule="nonzero"/></clipPath><clipPath id="b922896072"><path d="M 7.214844 0.59375 L 25.007812 0.59375 C 28.582031 0.59375 31.480469 3.492188 31.480469 7.058594 L 31.480469 150.3125 C 31.480469 153.886719 28.589844 156.78125 25.011719 156.78125 L 7.214844 156.78125 C 3.636719 156.78125 0.746094 153.878906 0.746094 150.3125 L 0.746094 7.058594 C 0.746094 3.492188 3.636719 0.59375 7.214844 0.59375 " clip-rule="nonzero"/></clipPath><clipPath id="d125679291"><rect x="0" width="32" y="0" height="157"/></clipPath><clipPath id="0952c70e35"><path d="M 346.390625 6.59375 L 442.789062 6.59375 L 442.789062 162.863281 L 346.390625 162.863281 Z M 346.390625 6.59375 " clip-rule="nonzero"/></clipPath><clipPath id="6dd0c8d489"><path d="M 352.859375 6.59375 L 380.226562 6.59375 C 383.039062 6.59375 385.527344 8.410156 386.386719 11.089844 L 414.84375 100.082031 L 415.398438 100.082031 L 415.398438 13.058594 C 415.398438 9.484375 418.292969 6.59375 421.867188 6.59375 L 436.304688 6.59375 C 439.882812 6.59375 442.773438 9.492188 442.773438 13.058594 L 442.773438 156.3125 C 442.773438 159.886719 439.875 162.78125 436.304688 162.78125 L 415.921875 162.78125 C 413.113281 162.78125 410.625 160.972656 409.765625 158.296875 L 374.328125 48.761719 L 373.769531 48.761719 L 373.769531 156.3125 C 373.769531 159.886719 370.878906 162.78125 367.304688 162.78125 L 352.859375 162.78125 C 349.28125 162.78125 346.390625 159.878906 346.390625 156.3125 L 346.390625 13.058594 C 346.390625 9.492188 349.28125 6.59375 352.859375 6.59375 " clip-rule="nonzero"/></clipPath><clipPath id="91627e0d65"><path d="M 0.390625 0.59375 L 96.789062 0.59375 L 96.789062 156.800781 L 0.390625 156.800781 Z M 0.390625 0.59375 " clip-rule="nonzero"/></clipPath><clipPath id="d88968fcbf"><path d="M 6.859375 0.59375 L 34.226562 0.59375 C 37.039062 0.59375 39.527344 2.410156 40.386719 5.089844 L 68.84375 94.082031 L 69.398438 94.082031 L 69.398438 7.058594 C 69.398438 3.484375 72.292969 0.59375 75.867188 0.59375 L 90.304688 0.59375 C 93.882812 0.59375 96.773438 3.492188 96.773438 7.058594 L 96.773438 150.3125 C 96.773438 153.886719 93.875 156.78125 90.304688 156.78125 L 69.921875 156.78125 C 67.113281 156.78125 64.625 154.972656 63.765625 152.296875 L 28.328125 42.761719 L 27.769531 42.761719 L 27.769531 150.3125 C 27.769531 153.886719 24.878906 156.78125 21.304688 156.78125 L 6.859375 156.78125 C 3.28125 156.78125 0.390625 153.878906 0.390625 150.3125 L 0.390625 7.058594 C 0.390625 3.492188 3.28125 0.59375 6.859375 0.59375 " clip-rule="nonzero"/></clipPath><clipPath id="bbd4f95e73"><rect x="0" width="97" y="0" height="157"/></clipPath><clipPath id="782a2ba492"><path d="M 465.699219 6.59375 L 496.554688 6.59375 L 496.554688 162.792969 L 465.699219 162.792969 Z M 465.699219 6.59375 " clip-rule="nonzero"/></clipPath><clipPath id="9ad03369b6"><path d="M 472.164062 6.59375 L 489.957031 6.59375 C 493.53125 6.59375 496.433594 9.492188 496.433594 13.058594 L 496.433594 156.3125 C 496.433594 159.886719 493.539062 162.78125 489.964844 162.78125 L 472.164062 162.78125 C 468.589844 162.78125 465.699219 159.878906 465.699219 156.3125 L 465.699219 13.058594 C 465.699219 9.492188 468.589844 6.59375 472.164062 6.59375 " clip-rule="nonzero"/></clipPath><clipPath id="54115e2828"><path d="M 0.699219 0.59375 L 31.519531 0.59375 L 31.519531 156.792969 L 0.699219 156.792969 Z M 0.699219 0.59375 " clip-rule="nonzero"/></clipPath><clipPath id="e5b7844ef1"><path d="M 7.164062 0.59375 L 24.957031 0.59375 C 28.53125 0.59375 31.433594 3.492188 31.433594 7.058594 L 31.433594 150.3125 C 31.433594 153.886719 28.539062 156.78125 24.964844 156.78125 L 7.164062 156.78125 C 3.589844 156.78125 0.699219 153.878906 0.699219 150.3125 L 0.699219 7.058594 C 0.699219 3.492188 3.589844 0.59375 7.164062 0.59375 " clip-rule="nonzero"/></clipPath><clipPath id="5ffda66f68"><rect x="0" width="32" y="0" height="157"/></clipPath><clipPath id="4382cf43bb"><path d="M 513.222656 6.59375 L 612.441406 6.59375 L 612.441406 163 L 513.222656 163 Z M 513.222656 6.59375 " clip-rule="nonzero"/></clipPath><clipPath id="3d96a920f2"><path d="M 547.070312 95.097656 L 514.105469 15.539062 C 512.339844 11.28125 515.476562 6.59375 520.082031 6.59375 L 538.566406 6.59375 C 541.28125 6.59375 543.707031 8.292969 544.644531 10.839844 L 564.050781 63.933594 L 564.605469 63.933594 L 584.011719 10.839844 C 584.941406 8.292969 587.371094 6.59375 590.089844 6.59375 L 605.78125 6.59375 C 610.386719 6.59375 613.523438 11.28125 611.757812 15.539062 L 578.792969 95.097656 C 578.472656 95.878906 578.304688 96.722656 578.304688 97.570312 L 578.304688 156.304688 C 578.304688 159.878906 575.410156 162.773438 571.835938 162.773438 L 554.035156 162.773438 C 550.460938 162.773438 547.566406 159.878906 547.566406 156.304688 L 547.566406 97.570312 C 547.566406 96.722656 547.398438 95.878906 547.078125 95.097656 " clip-rule="nonzero"/></clipPath><clipPath id="ed2d84fc9b"><path d="M 0.558594 0.59375 L 99.441406 0.59375 L 99.441406 156.800781 L 0.558594 156.800781 Z M 0.558594 0.59375 " clip-rule="nonzero"/></clipPath><clipPath id="d286a050b4"><path d="M 34.070312 89.097656 L 1.105469 9.539062 C -0.660156 5.28125 2.476562 0.59375 7.082031 0.59375 L 25.566406 0.59375 C 28.28125 0.59375 30.707031 2.292969 31.644531 4.839844 L 51.050781 57.933594 L 51.605469 57.933594 L 71.011719 4.839844 C 71.941406 2.292969 74.371094 0.59375 77.089844 0.59375 L 92.78125 0.59375 C 97.386719 0.59375 100.523438 5.28125 98.757812 9.539062 L 65.792969 89.097656 C 65.472656 89.878906 65.304688 90.722656 65.304688 91.570312 L 65.304688 150.304688 C 65.304688 153.878906 62.410156 156.773438 58.835938 156.773438 L 41.035156 156.773438 C 37.460938 156.773438 34.566406 153.878906 34.566406 150.304688 L 34.566406 91.570312 C 34.566406 90.722656 34.398438 89.878906 34.078125 89.097656 " clip-rule="nonzero"/></clipPath><clipPath id="fb1bf05c3f"><rect x="0" width="100" y="0" height="157"/></clipPath><clipPath id="cde0a18c3f"><rect x="0" width="613" y="0" height="166"/></clipPath></defs><g transform="matrix(1, 0, 0, 1, 1, 34)"><g clip-path="url(#cde0a18c3f)"><g clip-path="url(#9fb3291b0e)"><g clip-path="url(#17d7c56b00)"><g transform="matrix(1, 0, 0, 1, 66, 76)"><g clip-path="url(#ba8516e37b)"><g clip-path="url(#0195b6338d)"><g clip-path="url(#7823cacb95)"><rect x="-290.86" width="1062.72" fill="#5e17eb" y="-195.175998" height="404.351991" fill-opacity="1"/></g></g></g></g></g></g><g clip-path="url(#ff83844966)"><g clip-path="url(#308159bf3c)"><g transform="matrix(1, 0, 0, 1, 3, 3)"><g clip-path="url(#5c3a256913)"><g clip-path="url(#e0855f7db2)"><g clip-path="url(#986b367c11)"><rect x="-227.86" width="1062.72" fill="#5e17eb" y="-122.175998" height="404.351991" fill-opacity="1"/></g></g></g></g></g></g><g clip-path="url(#eb1e5ffc22)"><g clip-path="url(#2c5b78b1c2)"><g transform="matrix(1, 0, 0, 1, 183, 4)"><g clip-path="url(#1be39a8733)"><g clip-path="url(#ea1a4386d8)"><g clip-path="url(#e0ed9e2ec6)"><path fill="#5e17eb" d="M 0.496094 0.359375 L 92.144531 0.359375 L 92.144531 161.105469 L 0.496094 161.105469 Z M 0.496094 0.359375 " fill-opacity="1" fill-rule="nonzero"/></g></g></g></g></g></g><g clip-path="url(#dd36ad8bf3)"><g clip-path="url(#1b037f0efc)"><g transform="matrix(1, 0, 0, 1, 292, 6)"><g clip-path="url(#d125679291)"><g clip-path="url(#3859a41dc2)"><g clip-path="url(#b922896072)"><path fill="#5e17eb" d="M 0.746094 0.59375 L 31.480469 0.59375 L 31.480469 156.792969 L 0.746094 156.792969 Z M 0.746094 0.59375 " fill-opacity="1" fill-rule="nonzero"/></g></g></g></g></g></g><g clip-path="url(#0952c70e35)"><g clip-path="url(#6dd0c8d489)"><g transform="matrix(1, 0, 0, 1, 346, 6)"><g clip-path="url(#bbd4f95e73)"><g clip-path="url(#91627e0d65)"><g clip-path="url(#d88968fcbf)"><path fill="#5e17eb" d="M 0.390625 0.59375 L 96.789062 0.59375 L 96.789062 156.863281 L 0.390625 156.863281 Z M 0.390625 0.59375 " fill-opacity="1" fill-rule="nonzero"/></g></g></g></g></g></g><g clip-path="url(#782a2ba492)"><g clip-path="url(#9ad03369b6)"><g transform="matrix(1, 0, 0, 1, 465, 6)"><g clip-path="url(#5ffda66f68)"><g clip-path="url(#54115e2828)"><g clip-path="url(#e5b7844ef1)"><path fill="#5e17eb" d="M 0.699219 0.59375 L 31.433594 0.59375 L 31.433594 156.792969 L 0.699219 156.792969 Z M 0.699219 0.59375 " fill-opacity="1" fill-rule="nonzero"/></g></g></g></g></g></g><g clip-path="url(#4382cf43bb)"><g clip-path="url(#3d96a920f2)"><g transform="matrix(1, 0, 0, 1, 513, 6)"><g clip-path="url(#fb1bf05c3f)"><g clip-path="url(#ed2d84fc9b)"><g clip-path="url(#d286a050b4)"><path fill="#5e17eb" d="M 0.609375 0.59375 L 99.253906 0.59375 L 99.253906 156.652344 L 0.609375 156.652344 Z M 0.609375 0.59375 " fill-opacity="1" fill-rule="nonzero"/></g></g></g></g></g></g></g></g></svg>