<?xml version="1.0" encoding="UTF-8"?>
<svg id="Capa_1" data-name="Capa 1" xmlns="http://www.w3.org/2000/svg" viewBox="0 0 182.3 70.01">
  <defs>
    <style>
      .cls-1 {
        fill: #fff;
      }
    </style>
  </defs>
  <path class="cls-1" d="m138.38,16.87c-2-3.08-4.83-5.44-8.49-7.07-3.66-1.63-8.02-2.45-13.07-2.45h-25.28v33.84c-.27-.89-.55-1.77-.99-2.52-1.13-1.92-2.62-3.48-4.46-4.66-1.85-1.18-3.89-2.13-6.12-2.84-2.24-.71-4.48-1.3-6.72-1.77-2.24-.48-4.29-.94-6.16-1.39-1.87-.45-3.37-1.03-4.5-1.74-1.13-.71-1.7-1.67-1.7-2.88,0-.95.29-1.79.87-2.53.58-.74,1.53-1.33,2.84-1.78,1.32-.45,3.05-.67,5.22-.67,2.42,0,4.92.36,7.51,1.07,2.58.71,5.18,1.78,7.82,3.2l4.82-11.62c-2.74-1.58-5.86-2.78-9.36-3.59s-7.07-1.23-10.7-1.23c-5.43,0-9.96.82-13.59,2.45-3.63,1.63-6.36,3.79-8.18,6.48-1.82,2.69-2.73,5.69-2.73,9.01,0,2.95.58,5.39,1.74,7.31,1.16,1.92,2.66,3.48,4.51,4.66,1.84,1.18,3.88,2.15,6.12,2.88,2.24.74,4.48,1.35,6.72,1.82,2.24.47,4.28.95,6.12,1.42,1.84.48,3.34,1.08,4.51,1.82,1.16.73,1.74,1.73,1.74,3,0,.89-.3,1.67-.91,2.33-.61.66-1.57,1.18-2.88,1.58-1.32.4-3.06.59-5.21.59-3.21,0-6.44-.51-9.68-1.54-3.24-1.03-6.1-2.33-8.57-3.91l-5.14,11.54c2.63,1.79,6.05,3.25,10.23,4.38,4.19,1.13,8.55,1.7,13.08,1.7,5.48,0,10.02-.82,13.63-2.45,3.61-1.63,6.32-3.8,8.14-6.52.89-1.34,1.56-2.73,2.01-4.19v12.05h15.64v-14.46h9.64c5.06,0,9.41-.83,13.07-2.49,3.66-1.66,6.49-4.02,8.49-7.07,2-3.05,3-6.66,3-10.82s-1-7.86-3-10.94m-15.21,16.87c-1.61,1.42-4.04,2.13-7.31,2.13h-8.69v-16.2h8.69c3.26,0,5.7.71,7.31,2.13,1.61,1.43,2.41,3.43,2.41,6.01s-.8,4.51-2.41,5.93"/>
  <path class="cls-1" d="m16.23,35c0-12.58,6.51-22.77,14.76-23.73-.42-.05-.81-.19-1.24-.19-8.83,0-15.99,10.71-15.99,23.92s7.16,23.92,15.99,23.92c.42,0,.82-.14,1.24-.19-8.25-.96-14.76-11.15-14.76-23.73"/>
  <path class="cls-1" d="m24.43,35c0-10.77,5.58-19.5,12.64-20.33-.36-.04-.7-.16-1.06-.16-7.56,0-13.7,9.17-13.7,20.48s6.13,20.48,13.7,20.48c.36,0,.7-.12,1.06-.16-7.06-.82-12.64-9.55-12.64-20.33"/>
  <path class="cls-1" d="m6.37,35c0-15.12,7.83-27.38,17.74-28.53-.5-.06-.98-.23-1.49-.23C12.01,6.24,3.4,19.12,3.4,35s8.61,28.76,19.23,28.76c.51,0,.99-.17,1.49-.23-9.91-1.15-17.74-13.41-17.74-28.53"/>
  <path class="cls-1" d="m166.07,35c0-12.58-6.51-22.77-14.76-23.73.42-.05.81-.19,1.24-.19,8.83,0,15.99,10.71,15.99,23.92s-7.16,23.92-15.99,23.92c-.42,0-.82-.14-1.24-.19,8.25-.96,14.76-11.15,14.76-23.73"/>
  <path class="cls-1" d="m157.87,35c0-10.77-5.58-19.5-12.64-20.33.36-.04.7-.16,1.06-.16,7.56,0,13.7,9.17,13.7,20.48s-6.13,20.48-13.7,20.48c-.36,0-.7-.12-1.06-.16,7.06-.82,12.64-9.55,12.64-20.33"/>
  <path class="cls-1" d="m175.93,35c0-15.12-7.83-27.38-17.74-28.53.5-.06.98-.23,1.49-.23,10.62,0,19.23,12.88,19.23,28.76s-8.61,28.76-19.23,28.76c-.51,0-.99-.17-1.49-.23,9.91-1.15,17.74-13.41,17.74-28.53"/>
</svg>